<svg  viewBox="0 0 43 44" fill="none" xmlns="http://www.w3.org/2000/svg">
<path d="M7.23147 19.0671C7.83371 17.1065 8.96389 15.3493 10.4982 13.9882C9.66356 13.3205 10.4982 9.17157 10.4982 9.17157C10.4982 9.17157 13.8364 10.6497 14.4325 11.3414C14.4325 11.3414 17.0078 8.21777 24.4712 8.21777C31.9345 8.21777 38.9688 13.9882 38.9688 21.69C38.9688 29.3919 33.3891 31.8479 33.3891 31.8479C33.0983 33.2067 32.6502 34.5271 32.0538 35.7822H29.0967C28.625 35.0565 28.203 34.2997 27.8336 33.517C27.8336 33.517 25.473 33.8031 23.7799 33.8031C22.5868 33.7788 21.3981 33.6512 20.2271 33.4216C20.1261 34.2603 19.8411 35.0664 19.3925 35.7822H16.1732C15.1718 34.9238 14.671 32.2294 14.671 32.2294C14.671 32.2294 6.5638 28.5575 4.84694 26.3636C3.91706 24.6229 4.03621 20.7601 4.03621 20.7601C4.93769 19.9299 6.03833 19.3468 7.23147 19.0671Z" stroke="black" stroke-width="1.62142" stroke-linecap="round" stroke-linejoin="round"/>
<path d="M17.5085 12.8436C19.4188 11.4702 21.7402 10.7889 24.0897 10.9122C26.657 10.8698 29.1682 11.665 31.2431 13.1775" stroke="black" stroke-width="1.62142" stroke-linecap="round" stroke-linejoin="round"/>
<path d="M10.4027 20.2397C10.7738 20.2397 11.0746 19.9389 11.0746 19.5679C11.0746 19.1968 10.7738 18.896 10.4027 18.896C10.0316 18.896 9.73083 19.1968 9.73083 19.5679C9.73083 19.9389 10.0316 20.2397 10.4027 20.2397Z" fill="black"/>
</svg>
