<svg width="101" height="101" viewBox="0 0 101 101" fill="none" xmlns="http://www.w3.org/2000/svg">
<path fill-rule="evenodd" clip-rule="evenodd" d="M18.9375 37.875H23.1458V58.9167H77.8542V37.875H82.0625V58.9167H85.2187C85.7997 58.9167 86.2708 59.3878 86.2708 59.9688V62.0729C86.2708 62.6539 85.7997 63.125 85.2187 63.125H15.7812C15.2002 63.125 14.7292 62.6539 14.7292 62.0729V59.9688C14.7292 59.3878 15.2002 58.9167 15.7812 58.9167H18.9375V37.875ZM21.0417 69.4375V84.1667H79.9583V69.4375H21.0417ZM18.9375 65.2292C17.7754 65.2292 16.8333 66.1712 16.8333 67.3333V86.2708C16.8333 87.433 17.7754 88.375 18.9375 88.375H82.0625C83.2246 88.375 84.1666 87.433 84.1666 86.2708V67.3333C84.1666 66.1712 83.2246 65.2292 82.0625 65.2292H18.9375Z" fill="#333333"/>
<path fill-rule="evenodd" clip-rule="evenodd" d="M21.4389 16.8333L16.9249 29.2751C16.8644 29.4419 16.8333 29.6185 16.8333 29.7969V34.8261C16.8333 36.5266 18.1957 37.875 19.8393 37.875C21.4829 37.875 22.8451 36.5266 22.8451 34.8261C22.8451 33.6639 23.7874 32.7219 24.9493 32.7219C26.1114 32.7219 27.0535 33.6639 27.0535 34.8261C27.0535 36.5266 28.4159 37.875 30.0595 37.875C31.7031 37.875 33.0655 36.5266 33.0655 34.8261C33.0655 33.6639 34.0075 32.7219 35.1697 32.7219C36.3318 32.7219 37.2738 33.6639 37.2738 34.8261C37.2738 36.5266 38.6363 37.875 40.2799 37.875C41.9226 37.875 43.2844 36.5279 43.2857 34.8286C43.2867 33.6673 44.2285 32.7261 45.3898 32.7261C46.5513 32.7261 47.4931 33.6673 47.494 34.8286C47.4955 36.5279 48.8573 37.875 50.5 37.875C52.1436 37.875 53.506 36.5266 53.506 34.8261C53.506 33.6639 54.4481 32.7219 55.6102 32.7219C56.7723 32.7219 57.7143 33.6639 57.7143 34.8261C57.7143 36.5266 59.0766 37.875 60.7201 37.875C62.3631 37.875 63.7249 36.5279 63.7262 34.8286C63.7272 33.6673 64.6688 32.7261 65.8303 32.7261C66.9918 32.7261 67.9337 33.6673 67.9345 34.8286C67.936 36.5279 69.2978 37.875 70.9405 37.875C72.5841 37.875 73.9465 36.5266 73.9465 34.8261C73.9465 33.6639 74.8886 32.7219 76.0507 32.7219C77.2126 32.7219 78.1549 33.6639 78.1549 34.8261C78.1549 36.5266 79.5171 37.875 81.1607 37.875C82.8042 37.875 84.1667 36.5266 84.1667 34.8261V29.7969C84.1667 29.6185 84.1355 29.4419 84.0751 29.2751L79.5611 16.8333H21.4389ZM79.4878 16.6312C79.4876 16.6311 79.4878 16.6314 79.4878 16.6312V16.6312ZM76.0507 39.9489C74.7469 41.2659 72.9422 42.0833 70.9405 42.0833C68.9386 42.0833 67.1341 41.2659 65.8303 39.9489C64.5268 41.2659 62.7221 42.0833 60.7201 42.0833C58.7185 42.0833 56.9137 41.2659 55.6102 39.9489C54.3064 41.2659 52.5019 42.0833 50.5 42.0833C48.4981 42.0833 46.6936 41.2659 45.3898 39.9489C44.0863 41.2659 42.2815 42.0833 40.2799 42.0833C38.278 42.0833 36.4732 41.2659 35.1697 39.9489C33.8659 41.2659 32.0614 42.0833 30.0595 42.0833C28.0578 42.0833 26.2531 41.2659 24.9493 39.9489C23.6458 41.2659 21.841 42.0833 19.8393 42.0833C15.8384 42.0833 12.625 38.8175 12.625 34.8261V29.7969C12.625 29.1297 12.7413 28.4673 12.9689 27.8398L17.5564 15.1954C18.1133 13.6605 19.569 12.625 21.214 12.625H79.786C81.431 12.625 82.8867 13.6605 83.4437 15.1954L88.0312 27.8398C88.2586 28.4673 88.375 29.1297 88.375 29.7969V34.8261C88.375 38.8175 85.1615 42.0833 81.1607 42.0833C79.159 42.0833 77.3542 41.2659 76.0507 39.9489Z" fill="#333333"/>
<path d="M25.25 53.6563C25.25 53.0754 25.7211 52.6042 26.3021 52.6042H32.6146C33.1955 52.6042 33.6667 53.0754 33.6667 53.6563V57.8647C33.6667 58.4456 33.1955 58.9167 32.6146 58.9167H26.3021C25.7211 58.9167 25.25 58.4456 25.25 57.8647V53.6563Z" fill="#333333"/>
<path d="M29.4583 55.7603C29.4583 55.1794 29.9295 54.7083 30.5104 54.7083H36.8229C37.4039 54.7083 37.875 55.1794 37.875 55.7603V57.8645C37.875 58.4455 37.4039 58.9166 36.8229 58.9166H30.5104C29.9295 58.9166 29.4583 58.4455 29.4583 57.8645V55.7603Z" fill="#333333"/>
<path d="M46.2917 55.7605C46.2917 57.5036 44.8785 58.9167 43.1354 58.9167C41.3923 58.9167 39.9792 57.5036 39.9792 55.7605C39.9792 54.0174 41.3923 52.6042 43.1354 52.6042C44.8785 52.6042 46.2917 54.0174 46.2917 55.7605Z" fill="#333333"/>
</svg>
