<svg width="100" height="100" viewBox="0 0 100 100" fill="none" xmlns="http://www.w3.org/2000/svg">
<path d="M23.7345 26.4937L20.7338 29.4945C19.9447 30.2838 19.9447 31.5632 20.7338 32.3527C21.1285 32.7474 21.6459 32.9447 22.1629 32.9447C22.68 32.9447 23.1974 32.7474 23.5918 32.3527L26.5925 29.3519C27.3818 28.5627 27.3818 27.2832 26.5925 26.4937C25.8037 25.7045 24.524 25.7047 23.7345 26.4937Z" fill="black"/>
<path d="M13.589 36.6394L11.7414 38.4871C10.9521 39.2761 10.9521 40.5558 11.7414 41.3451C12.1361 41.7398 12.6533 41.9371 13.1703 41.9371C13.6874 41.9371 14.2048 41.7398 14.5992 41.3451L16.4468 39.4974C17.2359 38.7083 17.2359 37.4287 16.4468 36.6394C15.6578 35.8503 14.3783 35.8503 13.589 36.6394Z" fill="black"/>
<path d="M99.408 36.0225L75.9827 12.5972C75.1934 11.8081 73.9137 11.8081 73.1247 12.5972L63.6257 22.0962C63.2467 22.4751 63.0337 22.9891 63.0337 23.5251C63.0337 24.061 63.2467 24.5751 63.6257 24.954L64.4229 25.7512L61.5905 28.5837C60.5817 29.5924 59.312 30.1846 57.6024 30.4413L41.4958 30.4637C40.3857 30.4637 39.3566 30.8194 38.5136 31.4213L37.2341 30.1421L38.0245 29.3516C38.4034 28.9727 38.6165 28.4587 38.6165 27.9227C38.6165 27.3868 38.4034 26.8727 38.0245 26.4938L26.8751 15.3446C26.0863 14.5554 24.8064 14.5554 24.0171 15.3446L0.591991 38.7698C0.213085 39.1487 0 39.6627 0 40.1987C0 40.7346 0.213085 41.2487 0.591991 41.6276L11.7414 52.777C12.1361 53.1717 12.6533 53.369 13.1703 53.369C13.6875 53.369 14.2049 53.1717 14.5992 52.777L15.266 52.1102L18.2324 55.0768C19.2115 56.0557 19.9687 57.2041 20.483 58.4897L20.5976 58.776C21.3162 60.5731 22.3746 62.1777 23.7429 63.5461L46.4575 86.2607C47.6134 87.4165 49.1317 87.9947 50.6503 87.9947C52.1688 87.9947 53.687 87.4167 54.8431 86.2607C55.4243 85.6793 55.8606 85.007 56.1516 84.2892C58.3247 85.2429 60.9571 84.8318 62.7339 83.055C63.2649 82.5238 63.6837 81.9095 63.978 81.2412C66.2251 82.4566 69.0977 82.1162 70.9946 80.2193C72.8934 78.3205 73.2401 75.4482 72.035 73.1939C72.6813 72.9094 73.2856 72.5033 73.8129 71.9762C73.8151 71.974 73.828 71.9611 73.8301 71.959C76.1534 69.6357 76.1534 65.8555 73.8301 63.5322L73.6834 63.3855L77.5047 59.5645C78.6411 58.4279 80.253 56.3889 81.05 54.3955L81.1719 54.0973C81.6846 52.8154 82.4424 51.6678 83.4244 50.6858L86.391 47.7192L87.0512 48.3793C87.4301 48.7582 87.9442 48.9713 88.4801 48.9713C89.016 48.9713 89.5301 48.7582 89.909 48.3793L99.408 38.8803C100.197 38.0915 100.197 36.8118 99.408 36.0225ZM13.8371 47.8233C13.8361 47.8242 13.8351 47.8256 13.8338 47.8268L13.1701 48.4905L4.8789 40.1987L25.4462 19.6313L33.7378 27.9227L32.9507 28.7098C32.9497 28.7108 32.9484 28.7118 32.9472 28.713L13.8371 47.8233ZM70.9792 69.0943C70.977 69.0965 70.9641 69.1092 70.962 69.1115C70.2194 69.8541 69.0465 69.8451 68.2926 69.0906C68.1772 68.9752 56.4774 57.3572 56.4774 57.3572C56.2536 57.1336 55.9897 56.9754 55.7093 56.8787C55.1864 56.6981 54.605 56.7358 54.1085 56.9967C53.9325 57.0893 53.7671 57.2094 53.6192 57.3572C53.1755 57.8012 52.9811 58.4002 53.0366 58.9801C53.0429 59.0445 53.052 59.1086 53.0644 59.1723C53.089 59.2996 53.1261 59.425 53.1753 59.5467C53.2739 59.79 53.4218 60.018 53.619 60.2152C53.619 60.2152 68.2645 74.8453 68.3491 74.907C68.8733 75.6547 68.8036 76.6947 68.1362 77.3617C67.4003 78.0978 66.2026 78.0978 65.4669 77.3617L49.8192 61.7961C49.6714 61.6482 49.506 61.5279 49.33 61.4354C48.5675 61.0346 47.6022 61.1549 46.961 61.7961C46.4843 62.2729 46.2978 62.9279 46.3968 63.5461C46.4616 63.9518 46.6483 64.3414 46.961 64.6539L60.1669 77.8595C60.6073 78.592 60.5108 79.5615 59.8755 80.1968C59.5188 80.5535 59.0448 80.7498 58.5407 80.7498C58.0366 80.7498 57.5626 80.5533 57.2061 80.1968L42.6683 65.741C41.879 64.9519 40.5995 64.9519 39.8101 65.741C39.7609 65.7904 39.7146 65.8416 39.6714 65.8945C39.0239 66.6883 39.0702 67.8592 39.8101 68.599L52.2765 81.0652C52.7169 81.7976 52.6202 82.7672 51.9849 83.4025C51.2489 84.1384 50.0513 84.1382 49.3155 83.4025L26.6009 60.6877C25.6218 59.7086 24.8646 58.5604 24.3505 57.2748L24.2359 56.9883C23.5171 55.1914 22.4589 53.5867 21.0906 52.2184L18.1242 49.2518L34.3763 32.9999L36.3816 35.0049C36.3577 35.2032 36.3439 35.4044 36.3431 35.6088C36.3431 35.6262 36.3431 35.6438 36.3435 35.6614C36.4398 39.8325 39.8747 43.226 44.0099 43.226L47.7913 43.2094L70.9723 66.3906C71.7196 67.1379 71.7196 68.3539 70.9792 69.0943ZM80.5662 47.8295C79.1952 49.2006 78.1364 50.8061 77.4248 52.5856L77.303 52.8864C76.844 54.0338 75.7518 55.6119 74.6467 56.717L70.835 60.5375L60.0952 49.7977C63.8305 49.7117 65.9608 48.653 66.0862 48.5889L64.2454 44.9907L64.2653 44.9805C64.2337 44.9957 61.1085 46.4594 55.6366 45.3389L50.0567 39.759L50.0386 39.7668C49.6628 39.4083 49.1628 39.2438 48.6415 39.2438C48.6386 39.2438 48.6356 39.2438 48.6329 39.2438L44.0017 39.2245C42.063 39.2245 40.4474 37.5793 40.3859 35.5997C40.3995 35.0045 40.9032 34.5059 41.4989 34.5059L57.7514 34.4833C57.8432 34.4833 57.935 34.4768 58.0257 34.4643C60.6819 34.0967 62.7829 33.1081 64.4487 31.4422L67.2813 28.61L83.5334 44.8625L80.5662 47.8295ZM88.4801 44.0926L87.8209 43.4334C87.8205 43.433 87.8203 43.4328 87.8199 43.4325L68.71 24.3225C68.7096 24.3221 68.7094 24.3219 68.709 24.3216L67.9128 23.5253L74.5538 16.8843L95.1209 37.4514L88.4801 44.0926Z" fill="black"/>
</svg>
