<svg width="81" height="81" viewBox="0 0 81 81" fill="none" xmlns="http://www.w3.org/2000/svg">
<g clip-path="url(#clip0_51_74)">
<path d="M75.1958 48.8355L67.6021 41.2417C67.3672 41.0066 67.0882 40.8201 66.7811 40.6928C66.474 40.5655 66.1449 40.5 65.8125 40.5C65.4801 40.5 65.151 40.5655 64.8439 40.6928C64.5368 40.8201 64.2578 41.0066 64.0229 41.2417L40.5 64.7644V75.9376H51.6732L75.1958 52.4147C75.431 52.1797 75.6175 51.9008 75.7448 51.5937C75.8721 51.2866 75.9376 50.9575 75.9376 50.6251C75.9376 50.2927 75.8721 49.9635 75.7448 49.6565C75.6175 49.3494 75.431 49.0704 75.1958 48.8355ZM49.5768 70.8751H45.5625V66.8608L58.2188 54.2045L62.2331 58.2188L49.5768 70.8751ZM65.8125 54.6394L61.7982 50.6251L65.8125 46.6108L69.8268 50.6251L65.8125 54.6394Z" fill="black"/>
<path d="M45.5625 40.5H20.25V45.5625H45.5625V40.5Z" fill="black"/>
<path d="M50.625 25.3125H20.25V30.375H50.625V25.3125Z" fill="black"/>
<path d="M65.8125 10.125C65.811 8.78281 65.2771 7.49604 64.328 6.54697C63.379 5.5979 62.0922 5.06404 60.75 5.0625H10.125C8.78283 5.06404 7.49606 5.5979 6.54699 6.54697C5.59792 7.49604 5.06406 8.78281 5.06252 10.125V43.0312C5.05703 48.0795 6.42643 53.0339 9.02372 57.3627C11.621 61.6915 15.3481 65.2313 19.805 67.6021L32.9063 74.5878V68.85L22.1879 63.1354C18.5413 61.1955 15.4917 58.2992 13.3665 54.7574C11.2414 51.2155 10.1208 47.1618 10.125 43.0312V10.125H60.75V32.9062H65.8125V10.125Z" fill="black"/>
</g>
<defs>
<clipPath id="clip0_51_74">
<rect width="81" height="81" fill="white"/>
</clipPath>
</defs>
</svg>
