<svg width="85" height="85" viewBox="0 0 85 85" fill="none" xmlns="http://www.w3.org/2000/svg">
<path fill-rule="evenodd" clip-rule="evenodd" d="M16.3926 31.7456H19.9066V49.3154H65.588V31.7456H69.102V49.3154H71.7375C72.2226 49.3154 72.616 49.7088 72.616 50.1939V51.9509C72.616 52.436 72.2226 52.8294 71.7375 52.8294H13.7572C13.272 52.8294 12.8787 52.436 12.8787 51.9509V50.1939C12.8787 49.7088 13.272 49.3154 13.7572 49.3154H16.3926V31.7456ZM18.1496 58.1003V70.3991H67.345V58.1003H18.1496ZM16.3926 54.5863C15.4223 54.5863 14.6356 55.3729 14.6356 56.3433V72.1561C14.6356 73.1265 15.4223 73.9131 16.3926 73.9131H69.102C70.0724 73.9131 70.859 73.1265 70.859 72.1561V56.3433C70.859 55.3729 70.0724 54.5863 69.102 54.5863H16.3926Z" fill="#333333"/>
<path fill-rule="evenodd" clip-rule="evenodd" d="M18.4815 14.1756L14.7123 24.5644C14.6618 24.7037 14.6358 24.8512 14.6358 25.0002V29.1995C14.6358 30.6195 15.7734 31.7454 17.1458 31.7454C18.5182 31.7454 19.6556 30.6195 19.6556 29.1995C19.6556 28.2291 20.4424 27.4425 21.4126 27.4425C22.383 27.4425 23.1696 28.2291 23.1696 29.1995C23.1696 30.6195 24.3073 31.7454 25.6796 31.7454C27.052 31.7454 28.1896 30.6195 28.1896 29.1995C28.1896 28.2291 28.9762 27.4425 29.9466 27.4425C30.917 27.4425 31.7036 28.2291 31.7036 29.1995C31.7036 30.6195 32.8413 31.7454 34.2136 31.7454C35.5853 31.7454 36.7224 30.6206 36.7235 29.2016C36.7244 28.2319 37.5108 27.446 38.4805 27.446C39.4503 27.446 40.2367 28.2319 40.2374 29.2016C40.2387 30.6206 41.3758 31.7454 42.7475 31.7454C44.1198 31.7454 45.2575 30.6195 45.2575 29.1995C45.2575 28.2291 46.0441 27.4425 47.0145 27.4425C47.9848 27.4425 48.7714 28.2291 48.7714 29.1995C48.7714 30.6195 49.9089 31.7454 51.2813 31.7454C52.6531 31.7454 53.7902 30.6206 53.7913 29.2016C53.7922 28.2319 54.5784 27.446 55.5483 27.446C56.5181 27.446 57.3046 28.2319 57.3053 29.2016C57.3065 30.6206 58.4436 31.7454 59.8153 31.7454C61.1876 31.7454 62.3253 30.6195 62.3253 29.1995C62.3253 28.2291 63.1119 27.4425 64.0823 27.4425C65.0525 27.4425 65.8393 28.2291 65.8393 29.1995C65.8393 30.6195 66.9767 31.7454 68.3491 31.7454C69.7215 31.7454 70.8591 30.6195 70.8591 29.1995V25.0002C70.8591 24.8512 70.8331 24.7037 70.7827 24.5644L67.0134 14.1756H18.4815ZM66.9523 14.0068C66.9521 14.0067 66.9523 14.007 66.9523 14.0068V14.0068ZM64.0823 33.477C62.9936 34.5767 61.4867 35.2593 59.8153 35.2593C58.1437 35.2593 56.6369 34.5767 55.5483 33.477C54.4598 34.5767 52.9529 35.2593 51.2813 35.2593C49.6099 35.2593 48.1029 34.5767 47.0145 33.477C45.9258 34.5767 44.419 35.2593 42.7475 35.2593C41.0759 35.2593 39.5691 34.5767 38.4805 33.477C37.392 34.5767 35.885 35.2593 34.2136 35.2593C32.542 35.2593 31.0351 34.5767 29.9466 33.477C28.858 34.5767 27.3512 35.2593 25.6796 35.2593C24.0082 35.2593 22.5013 34.5767 21.4126 33.477C20.3242 34.5767 18.8172 35.2593 17.1458 35.2593C13.805 35.2593 11.1218 32.5323 11.1218 29.1995V25.0002C11.1218 24.443 11.219 23.8899 11.409 23.366L15.2395 12.8079C15.7045 11.5262 16.9201 10.6616 18.2936 10.6616H67.2013C68.5749 10.6616 69.7903 11.5262 70.2554 12.8079L74.086 23.366C74.2759 23.8899 74.3731 24.443 74.3731 25.0002V29.1995C74.3731 32.5323 71.6898 35.2593 68.3491 35.2593C66.6777 35.2593 65.1707 34.5767 64.0823 33.477Z" fill="#333333"/>
<path d="M21.6641 44.9229C21.6641 44.4378 22.0575 44.0444 22.5426 44.0444H27.8135C28.2986 44.0444 28.692 44.4378 28.692 44.9229V48.4369C28.692 48.922 28.2986 49.3154 27.8135 49.3154H22.5426C22.0575 49.3154 21.6641 48.922 21.6641 48.4369V44.9229Z" fill="#333333"/>
<path d="M25.178 46.68C25.178 46.1949 25.5714 45.8015 26.0565 45.8015H31.3274C31.8125 45.8015 32.2059 46.1949 32.2059 46.68V48.437C32.2059 48.9221 31.8125 49.3155 31.3274 49.3155H26.0565C25.5714 49.3155 25.178 48.9221 25.178 48.437V46.68Z" fill="#333333"/>
<path d="M39.2336 46.6799C39.2336 48.1354 38.0536 49.3154 36.5981 49.3154C35.1426 49.3154 33.9626 48.1354 33.9626 46.6799C33.9626 45.2244 35.1426 44.0444 36.5981 44.0444C38.0536 44.0444 39.2336 45.2244 39.2336 46.6799Z" fill="#333333"/>
</svg>
