<svg width="85" height="85" viewBox="0 0 85 85" fill="none" xmlns="http://www.w3.org/2000/svg">
<g clip-path="url(#clip0_149_272)">
<path d="M20.3985 22.6822L17.8928 25.1878C17.234 25.8469 17.234 26.9152 17.8928 27.5744C18.2224 27.904 18.6544 28.0688 19.0861 28.0688C19.518 28.0688 19.95 27.904 20.2793 27.5744L22.7849 25.0688C23.4439 24.4098 23.4439 23.3414 22.7849 22.6822C22.1262 22.0232 21.0577 22.0233 20.3985 22.6822Z" fill="black"/>
<path d="M11.9272 31.1538L10.3844 32.6966C9.72538 33.3555 9.72538 34.424 10.3844 35.083C10.714 35.4126 11.1459 35.5774 11.5775 35.5774C12.0094 35.5774 12.4414 35.4126 12.7707 35.083L14.3135 33.5403C14.9723 32.8814 14.9723 31.8128 14.3135 31.1538C13.6546 30.495 12.5862 30.495 11.9272 31.1538Z" fill="black"/>
<path d="M83.5858 30.6388L64.0256 11.0786C63.3666 10.4198 62.298 10.4198 61.6392 11.0786L53.7075 19.0103C53.3911 19.3267 53.2132 19.7559 53.2132 20.2034C53.2132 20.6509 53.3911 21.0802 53.7075 21.3966L54.3732 22.0623L52.0082 24.4273C51.1658 25.2697 50.1056 25.7642 48.6781 25.9784L35.2291 25.9972C34.3021 25.9972 33.4428 26.2942 32.7389 26.7968L31.6706 25.7286L32.3306 25.0686C32.647 24.7522 32.8249 24.323 32.8249 23.8755C32.8249 23.428 32.647 22.9987 32.3306 22.6823L23.0208 13.3727C22.3621 12.7137 21.2934 12.7137 20.6344 13.3727L1.07439 32.9328C0.758005 33.2491 0.580078 33.6784 0.580078 34.1259C0.580078 34.5734 0.758005 35.0026 1.07439 35.319L10.3841 44.6288C10.7137 44.9584 11.1456 45.1231 11.5773 45.1231C12.0091 45.1231 12.4411 44.9584 12.7704 44.6288L13.3272 44.072L15.8041 46.5491C16.6217 47.3665 17.254 48.3254 17.6834 49.3989L17.7791 49.6379C18.3791 51.1385 19.2628 52.4784 20.4054 53.621L39.3721 72.5877C40.3373 73.5528 41.6051 74.0355 42.8731 74.0355C44.1411 74.0355 45.4087 73.553 46.374 72.5877C46.8594 72.1022 47.2237 71.5408 47.4667 70.9415C49.2812 71.7378 51.4793 71.3945 52.9629 69.9109C53.4063 69.4674 53.7559 68.9544 54.0017 68.3964C55.878 69.4112 58.2767 69.127 59.8606 67.5431C61.4461 65.9576 61.7356 63.5592 60.7293 61.6769C61.269 61.4393 61.7736 61.1002 62.2139 60.6601C62.2157 60.6583 62.2264 60.6475 62.2282 60.6457C64.1681 58.7058 64.1681 55.5493 62.2282 53.6094L62.1058 53.4869L65.2965 50.2963C66.2454 49.3473 67.5913 47.6447 68.2569 45.9803L68.3586 45.7312C68.7867 44.6609 69.4195 43.7026 70.2395 42.8826L72.7166 40.4055L73.2678 40.9567C73.5842 41.2731 74.0135 41.451 74.461 41.451C74.9085 41.451 75.3377 41.2731 75.6541 40.9567L83.5858 33.0251C84.2448 32.3664 84.2448 31.2978 83.5858 30.6388ZM12.134 40.4924C12.1332 40.4932 12.1324 40.4944 12.1313 40.4954L11.5771 41.0495L4.65396 34.1259L21.8277 16.9522L28.7512 23.8755L28.0939 24.5327C28.0931 24.5335 28.092 24.5343 28.091 24.5353L12.134 40.4924ZM59.8477 58.2537C59.8459 58.2555 59.8351 58.2661 59.8333 58.2681C59.2133 58.8882 58.2339 58.8806 57.6044 58.2506C57.508 58.1543 47.7387 48.4533 47.7387 48.4533C47.5518 48.2665 47.3315 48.1344 47.0973 48.0537C46.6607 47.9029 46.1752 47.9343 45.7607 48.1522C45.6137 48.2295 45.4756 48.3298 45.3521 48.4533C44.9816 48.824 44.8193 49.3242 44.8657 49.8084C44.8709 49.8622 44.8785 49.9157 44.8888 49.9688C44.9094 50.0752 44.9403 50.1799 44.9814 50.2815C45.0638 50.4847 45.1873 50.675 45.352 50.8397C45.352 50.8397 57.581 63.0558 57.6516 63.1073C58.0893 63.7316 58.0311 64.6001 57.4738 65.157C56.8593 65.7717 55.8593 65.7717 55.2449 65.157L42.1791 52.1597C42.0557 52.0363 41.9176 51.9358 41.7706 51.8585C41.1339 51.5239 40.328 51.6243 39.7925 52.1597C39.3945 52.5578 39.2387 53.1048 39.3214 53.621C39.3755 53.9597 39.5314 54.2851 39.7925 54.546L50.8194 65.5727C51.1872 66.1843 51.1066 66.9938 50.5761 67.5243C50.2783 67.8221 49.8825 67.986 49.4616 67.986C49.0406 67.986 48.6448 67.822 48.3472 67.5243L36.2081 55.4537C35.5491 54.7949 34.4807 54.7949 33.8215 55.4537C33.7804 55.495 33.7417 55.5377 33.7057 55.5819C33.1651 56.2447 33.2037 57.2224 33.8215 57.8402L44.2309 68.2494C44.5987 68.861 44.518 69.6706 43.9874 70.2011C43.3729 70.8156 42.3729 70.8154 41.7585 70.2011L22.7919 51.2342C21.9743 50.4167 21.342 49.4579 20.9128 48.3845L20.817 48.1452C20.2169 46.6448 19.3333 45.3049 18.1907 44.1623L15.7138 41.6852L29.2843 28.1149L30.9587 29.7891C30.9388 29.9546 30.9272 30.1226 30.9266 30.2934C30.9266 30.3079 30.9266 30.3226 30.9269 30.3372C31.0073 33.8201 33.8755 36.6537 37.3283 36.6537L40.4858 36.6398L59.842 55.9962C60.4659 56.6201 60.4659 57.6355 59.8477 58.2537ZM67.8529 40.4976C66.708 41.6425 65.8239 42.9831 65.2298 44.4689L65.1281 44.7201C64.7448 45.6782 63.8328 46.9959 62.9101 47.9187L59.7273 51.1088L50.7596 42.1411C53.8786 42.0693 55.6574 41.1852 55.7621 41.1317L54.225 38.1272L54.2416 38.1187C54.2152 38.1314 51.6057 39.3536 47.0366 38.418L42.3775 33.7588L42.3623 33.7653C42.0485 33.4659 41.631 33.3286 41.1957 33.3286C41.1933 33.3286 41.1908 33.3286 41.1886 33.3286L37.3215 33.3124C35.7027 33.3124 34.3536 31.9387 34.3023 30.2857C34.3137 29.7888 34.7343 29.3724 35.2317 29.3724L48.8025 29.3535C48.8792 29.3535 48.9558 29.3481 49.0315 29.3377C51.2495 29.0308 53.0038 28.2052 54.3947 26.8143L56.76 24.4494L70.3305 38.0202L67.8529 40.4976ZM74.461 37.3773L73.9106 36.8269C73.9102 36.8266 73.9101 36.8264 73.9097 36.8261L57.9529 20.8693C57.9526 20.869 57.9525 20.8688 57.9521 20.8685L57.2872 20.2036L62.8325 14.6584L80.006 31.8319L74.461 37.3773Z" fill="black"/>
</g>
<defs>
<clipPath id="clip0_149_272">
<rect width="83.5" height="83.5" fill="white" transform="translate(0.580078 0.559814)"/>
</clipPath>
</defs>
</svg>
