<svg width="69" height="68" viewBox="0 0 69 68" fill="none" xmlns="http://www.w3.org/2000/svg">
<g clip-path="url(#clip0_149_263)">
<path d="M63.5536 40.9675L57.2128 34.6267C57.0166 34.4303 56.7837 34.2746 56.5273 34.1683C56.2708 34.062 55.996 34.0073 55.7185 34.0073C55.4409 34.0073 55.1661 34.062 54.9097 34.1683C54.6533 34.2746 54.4203 34.4303 54.2241 34.6267L34.5825 54.2681V63.5977H43.9121L63.5536 43.9561C63.7499 43.7599 63.9057 43.527 64.0119 43.2706C64.1182 43.0142 64.1729 42.7393 64.1729 42.4618C64.1729 42.1842 64.1182 41.9094 64.0119 41.653C63.9057 41.3966 63.7499 41.1636 63.5536 40.9675ZM42.1617 59.3705H38.8097V56.0186L49.3777 45.4506L52.7296 48.8026L42.1617 59.3705ZM55.7185 45.8137L52.3665 42.4618L55.7185 39.1098L59.0704 42.4618L55.7185 45.8137Z" fill="black"/>
<path d="M38.8095 34.0073H17.6736V38.2345H38.8095V34.0073Z" fill="black"/>
<path d="M43.0367 21.3257H17.6736V25.5529H43.0367V21.3257Z" fill="black"/>
<path d="M55.7182 8.64442C55.7169 7.5237 55.2711 6.44924 54.4787 5.65677C53.6862 4.8643 52.6117 4.41852 51.491 4.41724H9.21914C8.09842 4.41852 7.02397 4.8643 6.23149 5.65677C5.43902 6.44924 4.99324 7.5237 4.99196 8.64442V36.1211C4.98738 40.3364 6.13083 44.4733 8.29956 48.0879C10.4683 51.7025 13.5804 54.6582 17.302 56.6378L28.2415 62.4709V57.6798L19.2917 52.9081C16.2467 51.2883 13.7004 48.8699 11.9258 45.9125C10.1513 42.955 9.21559 39.5701 9.21914 36.1211V8.64442H51.491V27.6668H55.7182V8.64442Z" fill="black"/>
</g>
<defs>
<clipPath id="clip0_149_263">
<rect width="67.635" height="67.635" fill="white" transform="translate(0.764893 0.189941)"/>
</clipPath>
</defs>
</svg>
