<svg width="18" height="18" viewBox="0 0 18 18" fill="none" xmlns="http://www.w3.org/2000/svg">
<path d="M7.57985 1.12307C8.27821 0.035795 9.86738 0.035795 10.5657 1.12307L12.3287 3.86774C12.5689 4.24184 12.9409 4.5121 13.371 4.62502L16.5261 5.4535C17.7759 5.78169 18.267 7.29308 17.4488 8.29325L15.3832 10.818C15.1017 11.1622 14.9596 11.5994 14.9851 12.0433L15.1721 15.3C15.2462 16.5901 13.9605 17.5242 12.7565 17.0551L9.71697 15.8708C9.30269 15.7094 8.8429 15.7094 8.42862 15.8708L5.38911 17.0551C4.18504 17.5242 2.89938 16.5901 2.97348 15.3L3.16053 12.0433C3.18602 11.5994 3.04394 11.1622 2.7624 10.818L0.696835 8.29325C-0.12142 7.29308 0.369662 5.78169 1.61953 5.4535L4.77464 4.62502C5.20468 4.5121 5.57665 4.24184 5.81694 3.86774L7.57985 1.12307Z" fill="#FFC32C"/>
</svg>
