<svg width="30" height="30" viewBox="0 0 30 30" fill="none" xmlns="http://www.w3.org/2000/svg">
<path d="M12.4758 1.92987C13.6566 0.091583 16.3434 0.0915847 17.5242 1.92987L20.5048 6.57038C20.911 7.20288 21.5399 7.65981 22.267 7.85073L27.6015 9.25146C29.7147 9.80635 30.5449 12.3617 29.1615 14.0527L25.6692 18.3214C25.1932 18.9033 24.9529 19.6426 24.9961 20.3931L25.3123 25.8993C25.4376 28.0805 23.2639 29.6598 21.2281 28.8666L16.0891 26.8644C15.3887 26.5914 14.6113 26.5914 13.9109 26.8644L8.77188 28.8666C6.73613 29.6598 4.56241 28.0805 4.68769 25.8993L5.00395 20.3931C5.04705 19.6426 4.80683 18.9033 4.33083 18.3214L0.838501 14.0527C-0.544946 12.3617 0.285342 9.80635 2.39853 9.25146L7.73297 7.85073C8.46005 7.65981 9.08896 7.20288 9.49522 6.57038L12.4758 1.92987Z" fill="#FFC32C"/>
</svg>
